<?xml version="1.0" encoding="utf-8"?>
<!-- Generator: Adobe Illustrator 16.0.0, SVG Export Plug-In . SVG Version: 6.00 Build 0)  -->
<!DOCTYPE svg PUBLIC "-//W3C//DTD SVG 1.1//EN" "http://www.w3.org/Graphics/SVG/1.1/DTD/svg11.dtd">
<svg version="1.1" id="Layer_1" xmlns="http://www.w3.org/2000/svg" xmlns:xlink="http://www.w3.org/1999/xlink" x="0px" y="0px"
	 width="50px" height="50px" viewBox="0 0 50 50" enable-background="new 0 0 50 50" xml:space="preserve">
<g>
	<polygon fill="#FFFFFF" points="36.756,8.265 6.494,8.265 6.494,12.099 32.925,12.099 	"/>
	<polygon fill="#FFFFFF" points="29.093,15.929 6.494,15.929 6.494,19.761 25.261,19.761 	"/>
	<polygon fill="#FFFFFF" points="30.243,27.424 37.148,27.424 37.148,23.593 34.073,23.593 	"/>
	<polygon fill="#FFFFFF" points="18.028,26.998 21.432,23.593 6.494,23.593 6.494,27.424 17.972,27.424 	"/>
	<polygon fill="#FFFFFF" points="24.544,33.123 17.062,34.405 17.473,31.258 6.494,31.258 6.494,35.09 37.148,35.09 37.148,31.258 
		26.41,31.258 	"/>
	<rect x="6.494" y="38.92" fill="#FFFFFF" width="30.654" height="3.832"/>
	<polygon fill="#FFFFFF" points="41.385,7.249 37.148,11.488 37.148,11.492 36.536,12.099 36.536,12.099 32.707,15.929 
		28.875,19.761 25.043,23.593 21.062,27.576 21.062,27.576 20.45,28.189 20.049,31.258 20.044,31.303 20.044,31.303 20.309,31.258 
		23.314,30.742 26.341,27.715 26.341,27.715 30.463,23.593 34.291,19.761 34.291,19.761 37.148,16.908 44.097,9.958 	"/>
</g>
</svg>
