<?xml version="1.0" encoding="utf-8"?>
<!-- Generator: Adobe Illustrator 16.0.0, SVG Export Plug-In . SVG Version: 6.00 Build 0)  -->
<!DOCTYPE svg PUBLIC "-//W3C//DTD SVG 1.1//EN" "http://www.w3.org/Graphics/SVG/1.1/DTD/svg11.dtd">
<svg version="1.1" id="Capa_1" xmlns="http://www.w3.org/2000/svg" xmlns:xlink="http://www.w3.org/1999/xlink" x="0px" y="0px"
	 width="50px" height="50px" viewBox="25 25 50 50" enable-background="new 25 25 50 50" xml:space="preserve">
<g>
	<path fill="#FFFFFF" d="M71.252,32.696H28.75c-2.071,0-3.75,1.679-3.75,3.75v28.046c0,2.071,1.679,3.751,3.75,3.751h42.502
		c2.069,0,3.748-1.68,3.748-3.751V36.447C75,34.375,73.321,32.696,71.252,32.696z M50.001,61.499c-6.091,0-11.03-4.938-11.03-11.029
		c0-6.092,4.939-11.03,11.03-11.03c6.091,0,11.029,4.938,11.029,11.03C61.03,56.561,56.092,61.499,50.001,61.499z"/>
	<polygon fill="#FFFFFF" points="45.79,43.883 45.79,50.469 45.79,57.055 51.491,53.762 57.195,50.469 51.491,47.175 	"/>
</g>
</svg>
